<svg viewBox="0 0 512 512" xmlns="http://www.w3.org/2000/svg" xmlns:xlink="http://www.w3.org/1999/xlink" id="Capa_1" overflow="hidden"><g><g><g><path d="M510.371 226.513C509.283 223.91 507.726 221.542 505.742 219.558L441.763 155.579C433.422 147.259 419.939 147.259 411.598 155.579 403.257 163.92 403.257 177.424 411.598 185.744L439.182 213.328 320.013 213.328C308.216 213.328 298.68 222.885 298.68 234.661 298.68 246.437 308.216 255.994 320.013 255.994L439.181 255.994 411.597 283.578C403.256 291.919 403.256 305.423 411.597 313.743 415.757 317.924 421.218 319.994 426.68 319.994 432.142 319.994 437.603 317.925 441.763 313.743L505.742 249.764C507.726 247.801 509.283 245.433 510.371 242.809 512.525 237.606 512.525 231.718 510.371 226.513Z" fill="#FFFFFF"/><path d="M362.68 298.667C350.883 298.667 341.347 308.224 341.347 320L341.347 426.667 256.014 426.667 256.014 85.333C256.014 75.925 249.827 67.605 240.803 64.896L166.712 42.667 341.347 42.667 341.347 149.334C341.347 161.11 350.883 170.667 362.68 170.667 374.477 170.667 384.013 161.11 384.013 149.334L384.013 21.334C384.013 9.557 374.477 0 362.68 0L21.347 0C20.579 0 19.896 0.32 19.15 0.405 18.147 0.512 17.23 0.682 16.27 0.917 14.03 1.493 12.003 2.368 10.105 3.562 9.636 3.861 9.06 3.882 8.612 4.223 8.44 4.352 8.376 4.587 8.205 4.715 5.88 6.549 3.939 8.789 2.531 11.456 2.232 12.032 2.168 12.651 1.934 13.248 1.251 14.869 0.505 16.448 0.249 18.24 0.142 18.88 0.334 19.477 0.313 20.096 0.292 20.523 0.014 20.907 0.014 21.333L0.014 448C0.014 458.176 7.203 466.923 17.166 468.907L230.499 511.574C231.886 511.873 233.294 512.001 234.68 512.001 239.565 512.001 244.365 510.316 248.205 507.158 253.133 503.105 256.013 497.067 256.013 490.667L256.013 469.334 362.68 469.334C374.477 469.334 384.013 459.777 384.013 448.001L384.013 320C384.013 308.224 374.477 298.667 362.68 298.667Z" fill="#FFFFFF"/></g></g></g><g></g><g></g><g></g><g></g><g></g><g></g><g></g><g></g><g></g><g></g><g></g><g></g><g></g><g></g><g></g></svg>